<svg id="logo" xmlns="http://www.w3.org/2000/svg" xmlns:xlink="http://www.w3.org/1999/xlink" width="254" height="51.972" viewBox="0 0 254 51.972">
  <defs>
    <clipPath id="clip-path">
      <path id="Path_7" data-name="Path 7" d="M0-16.983H254V-68.955H0Z" transform="translate(0 68.955)" fill="none"/>
    </clipPath>
  </defs>
  <path id="Path_1" data-name="Path 1" d="M206.946-42.96h98.023V-68.946H206.946Z" transform="translate(-50.969 68.953)" fill="#ffe23e"/>
  <path id="Path_2" data-name="Path 2" d="M206.946-8.492h98.023V-34.478H206.946Z" transform="translate(-50.969 60.464)" fill="#ff2d16"/>
  <g id="Group_1" data-name="Group 1" transform="translate(181.369 34.761)">
    <path id="Path_3" data-name="Path 3" d="M-3.4,0V8.384h-10.42V0h1.718V6.755h2.632V0h1.719V6.755h2.632V0Z" transform="translate(13.825)" fill="#ffe23e"/>
  </g>
  <g id="Group_2" data-name="Group 2" transform="translate(193.854 34.761)">
    <path id="Path_4" data-name="Path 4" d="M-1.594-2.739-4.756-6.656v3.916H-6.474v-8.384h1.718V-7.41l2.993-3.713H.364l-3.305,4.06,3.5,4.323Z" transform="translate(6.474 11.123)" fill="#ffe23e"/>
  </g>
  <g id="Group_5" data-name="Group 5" clip-path="url(#clip-path)">
    <g id="Group_3" data-name="Group 3" transform="translate(201.22 34.617)">
      <path id="Path_5" data-name="Path 5" d="M-2.863-1.417A4.283,4.283,0,0,1-7.25,2.919a4.274,4.274,0,0,1-4.375-4.335A4.274,4.274,0,0,1-7.25-5.752,4.283,4.283,0,0,1-2.863-1.417m-7.031,0A2.6,2.6,0,0,0-7.25,1.29,2.6,2.6,0,0,0-4.606-1.417,2.6,2.6,0,0,0-7.25-4.123,2.6,2.6,0,0,0-9.894-1.417" transform="translate(11.625 5.752)" fill="#ffe23e"/>
    </g>
    <g id="Group_4" data-name="Group 4" transform="translate(210.797 34.761)">
      <path id="Path_6" data-name="Path 6" d="M-2.565,0V8.384H-4.283V1.629H-6.555l-.673,4.18C-7.54,7.761-8.37,8.527-9.571,8.527a4.934,4.934,0,0,1-.842-.084V6.9a3.348,3.348,0,0,0,.481.035c.589,0,.854-.275,1.01-1.293L-8.009,0Z" transform="translate(10.413)" fill="#ffe23e"/>
    </g>
  </g>
  <g id="Group_6" data-name="Group 6" transform="translate(220.135 34.761)">
    <path id="Path_8" data-name="Path 8" d="M-1.94-2.094h-3.4L-6.062-.117H-7.877L-4.728-8.5h2.175L.6-.117H-1.231Zm-.6-1.629L-3.646-6.764-4.752-3.722Z" transform="translate(7.877 8.501)" fill="#ffe23e"/>
  </g>
  <path id="Path_9" data-name="Path 9" d="M0-16.983H155.977V-68.954H0Z" transform="translate(0 68.955)" fill="#0570bd"/>
  <path id="Path_10" data-name="Path 10" d="M27.077-29.477h2.709V-44.011H27.077Z" transform="translate(-6.669 62.812)" fill="#fff"/>
  <g id="Group_7" data-name="Group 7" transform="translate(30.201 18.801)">
    <path id="Path_11" data-name="Path 11" d="M-2.621-3.216l-5.1-9.841h-2.917V1.477h2.6V-8.365l5.1,9.842H-.016V-13.057h-2.6Z" transform="translate(10.643 13.057)" fill="#fff"/>
  </g>
  <g id="Group_8" data-name="Group 8" transform="translate(46.245 18.8)">
    <path id="Path_12" data-name="Path 12" d="M-1.9-3.79l-2.826-11.6h-3L-3.605-.855h3.4L3.937-15.389H.958Z" transform="translate(7.731 15.389)" fill="#fff"/>
  </g>
  <g id="Group_9" data-name="Group 9" transform="translate(63.33 18.8)">
    <path id="Path_13" data-name="Path 13" d="M0,0V14.534H8.543v-2.7H2.709V8.513H7.085v-2.7H2.709V2.7H8.543V0H0Z" fill="#fff"/>
  </g>
  <g id="Group_10" data-name="Group 10" transform="translate(77.708 18.801)">
    <path id="Path_14" data-name="Path 14" d="M-2.621-3.216l-5.1-9.841h-2.917V1.477h2.6V-8.365l5.1,9.842H-.017V-13.057h-2.6Z" transform="translate(10.643 13.057)" fill="#fff"/>
  </g>
  <g id="Group_11" data-name="Group 11" transform="translate(93.543 18.8)">
    <path id="Path_15" data-name="Path 15" d="M-1.26,0H-5.115V2.7H-1.26V14.534H1.449V2.7H5.3V0H-1.26Z" transform="translate(5.115)" fill="#fff"/>
  </g>
  <g id="Group_14" data-name="Group 14" clip-path="url(#clip-path)">
    <g id="Group_12" data-name="Group 12" transform="translate(108.545 18.489)">
      <path id="Path_16" data-name="Path 16" d="M-1.7,0A4.957,4.957,0,0,0-6.911,5.191V9.966A4.957,4.957,0,0,0-1.7,15.157,4.957,4.957,0,0,0,3.507,9.966V5.191A4.957,4.957,0,0,0-1.7,0M.8,9.966a2.38,2.38,0,0,1-2.5,2.492A2.38,2.38,0,0,1-4.2,9.966V5.191A2.38,2.38,0,0,1-1.7,2.7,2.38,2.38,0,0,1,.8,5.191Z" transform="translate(6.911)" fill="#fff"/>
    </g>
    <g id="Group_13" data-name="Group 13" transform="translate(125.63 18.8)">
      <path id="Path_17" data-name="Path 17" d="M-2.254-4.749H.788l-3.8-6.188A4.132,4.132,0,0,0,.2-15.006c0-2.45-1.9-4.277-4.688-4.277H-9.151V-4.749h2.6V-11.5h.335Zm-2.125-11.98A1.814,1.814,0,0,1-2.5-14.861a1.98,1.98,0,0,1-1.875,1.869H-6.546v-3.738Z" transform="translate(9.151 19.283)" fill="#fff"/>
    </g>
  </g>
  <g id="Group_15" data-name="Group 15" transform="translate(164.771 8.773)">
    <path id="Path_19" data-name="Path 19" d="M-2.417-2.824H-4.189V-9.788H-8.042v6.964H-9.814v-8.643h7.4Z" transform="translate(9.814 11.467)" fill="#ff2d16"/>
  </g>
  <g id="Group_18" data-name="Group 18" clip-path="url(#clip-path)">
    <g id="Group_16" data-name="Group 16" transform="translate(174.064 8.625)">
      <path id="Path_20" data-name="Path 20" d="M-2.952-1.461A4.416,4.416,0,0,1-7.474,3.009a4.4,4.4,0,0,1-4.51-4.469A4.4,4.4,0,0,1-7.474-5.93,4.416,4.416,0,0,1-2.952-1.461m-7.248,0A2.678,2.678,0,0,0-7.474,1.33a2.678,2.678,0,0,0,2.725-2.79,2.678,2.678,0,0,0-2.725-2.79A2.678,2.678,0,0,0-10.2-1.461" transform="translate(11.984 5.93)" fill="#ff2d16"/>
    </g>
    <g id="Group_17" data-name="Group 17" transform="translate(184.607 8.773)">
      <path id="Path_21" data-name="Path 21" d="M-2.191,0V8.643H-3.962V5.593a4.513,4.513,0,0,1-1.871.358c-1.822,0-3.061-.9-3.061-2.964V0H-7.11V2.765c0,1.137.607,1.507,1.648,1.507a2.934,2.934,0,0,0,1.5-.321V0Z" transform="translate(8.894)" fill="#ff2d16"/>
    </g>
  </g>
  <g id="Group_19" data-name="Group 19" transform="translate(192.97 8.773)">
    <path id="Path_23" data-name="Path 23" d="M-2-2.158H-5.507L-6.25-.121H-8.121l3.246-8.643h2.242L.614-.121H-1.269Zm-.62-1.679-1.14-3.136L-4.9-3.838Z" transform="translate(8.121 8.764)" fill="#ff2d16"/>
  </g>
  <g id="Group_20" data-name="Group 20" transform="translate(201.705 8.773)">
    <path id="Path_24" data-name="Path 24" d="M-2.21-.549h-2.5V6.415H-6.485V-.549h-2.49V-2.228H-2.21Z" transform="translate(8.975 2.228)" fill="#ff2d16"/>
  </g>
  <g id="Group_21" data-name="Group 21" transform="translate(210.142 8.773)">
    <path id="Path_25" data-name="Path 25" d="M-1.644-2.824-4.9-6.862v4.038H-6.675v-8.643H-4.9V-7.64l3.086-3.827H.375L-3.032-7.282l3.6,4.457Z" transform="translate(6.675 11.467)" fill="#ff2d16"/>
  </g>
  <g id="Group_24" data-name="Group 24" clip-path="url(#clip-path)">
    <g id="Group_22" data-name="Group 22" transform="translate(217.874 8.625)">
      <path id="Path_26" data-name="Path 26" d="M-2.952-1.461A4.416,4.416,0,0,1-7.474,3.009a4.4,4.4,0,0,1-4.51-4.469A4.4,4.4,0,0,1-7.474-5.93,4.416,4.416,0,0,1-2.952-1.461m-7.248,0A2.678,2.678,0,0,0-7.474,1.33a2.678,2.678,0,0,0,2.725-2.79,2.678,2.678,0,0,0-2.725-2.79A2.678,2.678,0,0,0-10.2-1.461" transform="translate(11.984 5.93)" fill="#ff2d16"/>
    </g>
    <g id="Group_23" data-name="Group 23" transform="translate(228.789 8.773)">
      <path id="Path_27" data-name="Path 27" d="M-2.207-2.009c0,1.581-1.14,2.494-2.924,2.494H-8.96V-8.158h3.8c1.6,0,2.652.766,2.652,2.248A1.774,1.774,0,0,1-3.582-4.17,2.1,2.1,0,0,1-2.207-2.009M-5.391-6.479h-1.8v1.741h1.846c.732,0,1.054-.3,1.054-.877,0-.63-.36-.865-1.1-.865M-4-2.157c0-.63-.26-.963-1.177-.963H-7.188v1.926h2.02c.9,0,1.164-.383,1.164-.962" transform="translate(8.96 8.158)" fill="#ff2d16"/>
    </g>
  </g>
  <g id="Group_25" data-name="Group 25" transform="translate(236.471 8.773)">
    <path id="Path_29" data-name="Path 29" d="M-2-2.158H-5.506L-6.25-.121H-8.121l3.246-8.643h2.242L.614-.121H-1.269Zm-.62-1.679-1.14-3.136L-4.9-3.838Z" transform="translate(8.121 8.764)" fill="#ff2d16"/>
  </g>
</svg>
