<svg xmlns="http://www.w3.org/2000/svg" xmlns:xlink="http://www.w3.org/1999/xlink" width="2005.156" height="1301.948" viewBox="0 0 2005.156 1301.948">
  <defs>
    <clipPath id="clip-path">
      <path id="Path_43" data-name="Path 43" d="M0-43.6H285V-180.909H0Z" transform="translate(0 180.909)" fill="none"/>
    </clipPath>
  </defs>
  <g id="Group_203" data-name="Group 203" transform="translate(438.193 -463.053)">
    <path id="Path_34" data-name="Path 34" d="M997.017,793.829A471.2,471.2,0,0,1,663.832,655.82l-44.07-44.07A150.267,150.267,0,0,0,512.8,567.443h-.153l-343.524.341h-.159a159.963,159.963,0,0,1-.158-319.925l343.524-.341h.472A471.2,471.2,0,0,1,845.982,385.529L890.051,429.6A150.28,150.28,0,0,0,997.016,473.9c83.41,0,151.271-67.86,151.271-151.27V-75.184a430.384,430.384,0,0,1,34.088-168.568,431.307,431.307,0,0,1,92.717-137.564,431.268,431.268,0,0,1,137.565-92.716,430.373,430.373,0,0,1,168.566-34.088,430.387,430.387,0,0,1,168.568,34.088,431.294,431.294,0,0,1,137.564,92.716,431.286,431.286,0,0,1,92.717,137.565,430.376,430.376,0,0,1,34.087,168.567V122.642a159.963,159.963,0,1,1-319.925,0V-75.184a113.137,113.137,0,0,0-113.009-113.01,113.138,113.138,0,0,0-113.011,113.01V322.634a470.938,470.938,0,0,1-471.2,471.2Z" transform="translate(-447.194 971.172)" fill="#fee74c"/>
    <path id="Path_37" data-name="Path 37" d="M1442.073-312a60.646,60.646,0,0,0-22.046,4.093,56.948,56.948,0,0,0-17.991,11.134,51.8,51.8,0,0,0-12.126,16.521,48.064,48.064,0,0,0-4.457,20.243c0,8.09-7.167,14.671-15.978,14.671h-.424c-8.809,0-15.977-6.581-15.977-14.671,0-10.157-8.967-18.391-20.029-18.391s-20.028,8.234-20.028,18.391a47.554,47.554,0,0,0,4.412,20.033,51.253,51.253,0,0,0,12,16.349,56.321,56.321,0,0,0,17.805,11.019,60.009,60.009,0,0,0,21.817,4.052h.424a60.012,60.012,0,0,0,21.818-4.052,56.318,56.318,0,0,0,17.8-11.019,51.234,51.234,0,0,0,12-16.349,47.569,47.569,0,0,0,4.412-20.033c0-8.386,7.43-15.21,16.563-15.21s16.564,6.823,16.564,15.21v3.767a45.888,45.888,0,0,0,4.258,19.333,49.451,49.451,0,0,0,11.579,15.777,54.377,54.377,0,0,0,17.182,10.633,57.917,57.917,0,0,0,21.054,3.91,57.917,57.917,0,0,0,21.054-3.91,54.38,54.38,0,0,0,17.183-10.633,49.464,49.464,0,0,0,11.581-15.777,45.913,45.913,0,0,0,4.258-19.333v-3.116c0-8.533,7.56-15.476,16.853-15.476s16.855,6.943,16.855,15.476c0,10.157,8.966,18.391,20.028,18.391s20.029-8.234,20.029-18.391a48.308,48.308,0,0,0-4.481-20.346,52.064,52.064,0,0,0-12.189-16.606A57.209,57.209,0,0,0,1605.8-307.5a60.938,60.938,0,0,0-22.159-4.115,60.935,60.935,0,0,0-22.158,4.115,57.208,57.208,0,0,0-18.083,11.191,52.036,52.036,0,0,0-12.188,16.606,48.294,48.294,0,0,0-4.48,20.346v3.116c0,7.1-6.289,12.872-14.018,12.872s-14.018-5.773-14.018-12.872v-3.767a48.062,48.062,0,0,0-4.458-20.243,51.8,51.8,0,0,0-12.126-16.521,56.93,56.93,0,0,0-17.991-11.134A60.645,60.645,0,0,0,1442.073-312" transform="translate(-677.497 935.935)" fill="#009c3d"/>
    <g id="Group_39" data-name="Group 39" transform="translate(921 1553.818)">
      <g id="Group_38" data-name="Group 38" transform="translate(0 -180.909)" clip-path="url(#clip-path)">
        <g id="Group_33" data-name="Group 33" transform="translate(216.689 68.653)">
          <path id="Path_38" data-name="Path 38" d="M0-10.9A34.242,34.242,0,0,1,34.156-45.228,34.242,34.242,0,0,1,68.311-10.9,34.242,34.242,0,0,1,34.156,23.427,34.242,34.242,0,0,1,0-10.9" transform="translate(0 45.228)" fill="red"/>
        </g>
        <g id="Group_34" data-name="Group 34" transform="translate(108.344 68.653)">
          <path id="Path_39" data-name="Path 39" d="M0-10.9A34.242,34.242,0,0,1,34.155-45.228,34.242,34.242,0,0,1,68.311-10.9,34.242,34.242,0,0,1,34.155,23.427,34.242,34.242,0,0,1,0-10.9" transform="translate(0 45.228)" fill="red"/>
        </g>
        <g id="Group_35" data-name="Group 35" transform="translate(162.516 0)">
          <path id="Path_40" data-name="Path 40" d="M0-10.9A34.241,34.241,0,0,1,34.156-45.227,34.241,34.241,0,0,1,68.311-10.9,34.242,34.242,0,0,1,34.156,23.427,34.242,34.242,0,0,1,0-10.9" transform="translate(0 45.227)" fill="red"/>
        </g>
        <g id="Group_36" data-name="Group 36" transform="translate(54.172 0)">
          <path id="Path_41" data-name="Path 41" d="M0-10.9A34.241,34.241,0,0,1,34.155-45.227,34.241,34.241,0,0,1,68.311-10.9,34.242,34.242,0,0,1,34.155,23.427,34.242,34.242,0,0,1,0-10.9" transform="translate(0 45.227)" fill="red"/>
        </g>
        <g id="Group_37" data-name="Group 37" transform="translate(0 68.653)">
          <path id="Path_42" data-name="Path 42" d="M0-10.9A34.242,34.242,0,0,1,34.155-45.228,34.242,34.242,0,0,1,68.311-10.9,34.242,34.242,0,0,1,34.155,23.427,34.242,34.242,0,0,1,0-10.9" transform="translate(0 45.228)" fill="red"/>
        </g>
      </g>
    </g>
  </g>
</svg>
